<?xml version="1.0" encoding="UTF-8"?>
<svg id="Ebene_1" xmlns="http://www.w3.org/2000/svg" version="1.1" viewBox="0 0 200 39.9">
  <!-- Generator: Adobe Illustrator 29.5.0, SVG Export Plug-In . SVG Version: 2.1.0 Build 137)  -->
  <defs>
    <style>
      .st0 {
        fill: #fff;
      }

      .st1 {
        fill: #00acff;
      }
    </style>
  </defs>
  <g id="Logo">
    <rect class="st0" x="74.1" y="14.3" width="3.7" height="18.8"/>
    <path class="st0" d="M76,6.9c-1.5,0-2.8,1.2-2.8,2.8s1.3,2.8,2.8,2.8,2.8-1.2,2.8-2.8-1.3-2.8-2.8-2.8h0Z"/>
    <path class="st0" d="M104.7,6.9c-1.5,0-2.8,1.2-2.8,2.8s1.3,2.8,2.8,2.8,2.8-1.2,2.8-2.8-1.3-2.8-2.8-2.8h0Z"/>
    <rect class="st0" x="102.9" y="14.3" width="3.7" height="18.8"/>
    <path class="st0" d="M116.5,9.3h-3.7v2.4c0,1.3-1.1,2.4-2.4,2.4h-.8v2.9h3.2v15.7h3.7v-15.7h3.9v-2.9h-3.9v-4.9h0Z"/>
    <polygon class="st0" points="122.9 32.9 126.8 32.9 126.8 22.3 137.5 22.3 137.5 19.1 126.8 19.1 126.8 10.7 139.7 10.7 139.7 6.9 122.9 6.9 122.9 32.9"/>
    <rect class="st0" x="142.4" y="6.9" width="3.7" height="26.1"/>
    <polygon class="st0" points="192.8 14.3 189.1 27.6 188.8 27.6 184.3 14.3 179.9 14.3 175.5 27.6 175.1 27.6 171.5 14.3 167.9 14.3 173.2 32.9 177.5 32.9 177.5 32.9 182.1 19.2 186.7 32.9 190.9 32.9 196.4 14.3 192.8 14.3"/>
    <g>
      <path class="st0" d="M196.5,30.7c0,.7.5,1.2,1.2,1.2v-.7c-.3,0-.5-.3-.5-.5s.3-.5.5-.5v-.7c-.7,0-1.2.5-1.2,1.2h0Z"/>
      <path class="st0" d="M200,30.5c0-1.1-.9-2-2.1-2.1-1.3,0-2.5,1.1-2.4,2.4,0,1.1.9,2,2.1,2.1,1.3,0,2.5-1.1,2.4-2.4ZM199.3,30.9c0,.8-.7,1.5-1.5,1.5s-1.9-.8-1.7-1.7c0-.8.7-1.5,1.5-1.5s1.9.8,1.7,1.7h0Z"/>
    </g>
    <path class="st0" d="M99.2,14.3h-3.7v1.9c-.9-.7-2-1.2-3.2-1.6h0c-.8-.3-1.6-.4-2.4-.4-4.8,0-8.7,3.6-9.3,8.1h0v2.7h0c.7,4.1,3.9,7.3,7.9,7.9h1.3c.8,0,1.5,0,2.1-.3,1.3-.3,2.5-.8,3.5-1.6v3.6c0,.5-.4.9-.8,1.2-.4.3-.9.3-1.5.3h-9.2v3.6h10.9c.3,0,.5,0,.7-.3.1,0,.3,0,.4-.1s.3-.1.4-.3c1.7-.9,2.9-2.8,2.9-4.8V14.3h0ZM95.6,24h0c-.3,3.1-2.7,5.5-5.7,5.5s-5.6-2.4-5.7-5.5v-.7c.1-3.1,2.7-5.5,5.7-5.5s5.6,2.4,5.7,5.5v.7h0Z"/>
    <path class="st0" d="M158.1,14.1c-5.2,0-9.3,4.3-9.3,9.5s4.1,9.3,9.3,9.3,9.3-4.1,9.3-9.3-4.1-9.5-9.3-9.5ZM158.1,29.3c-3.2,0-5.7-2.5-5.7-5.7s2.5-5.7,5.7-5.7,5.7,2.5,5.7,5.7-2.7,5.7-5.7,5.7Z"/>
    <path class="st0" d="M58.4,6.9h-10.9v26.1h10.9c7.2,0,13.1-5.9,13.1-13.1s-5.9-13.1-13.1-13.1h0ZM58.4,29.1h-7.3V10.7h7.3c5.1,0,9.2,4.1,9.2,9.2s-4.1,9.2-9.2,9.2h0Z"/>
  </g>
  <path id="Icon" class="st1" d="M39.9,0v39.9H0v-5.5h5.5c4,0,7.6-1.6,10.1-4.3s4.3-6.3,4.3-10.1c0-8-6.4-14.4-14.4-14.4H0V0h39.9Z"/>
</svg>